<svg viewBox="0 0 80 80" fill="none" xmlns="http://www.w3.org/2000/svg">
  <defs>
    <!-- Body gradient — deep teal to dark -->
    <linearGradient id="c-body" x1="40" y1="2" x2="40" y2="78" gradientUnits="userSpaceOnUse">
      <stop offset="0%" stop-color="#5EEAD4"/>
      <stop offset="35%" stop-color="#14B8A6"/>
      <stop offset="65%" stop-color="#0D9488"/>
      <stop offset="100%" stop-color="#065F46"/>
    </linearGradient>
    <!-- Edge highlight — bright mint -->
    <linearGradient id="c-edge" x1="40" y1="2" x2="40" y2="78" gradientUnits="userSpaceOnUse">
      <stop offset="0%" stop-color="#CCFBF1"/>
      <stop offset="40%" stop-color="#5EEAD4"/>
      <stop offset="100%" stop-color="#14B8A6"/>
    </linearGradient>
    <!-- Crown body gradient -->
    <linearGradient id="c-crown" x1="40" y1="18" x2="40" y2="50" gradientUnits="userSpaceOnUse">
      <stop offset="0%" stop-color="#14B8A6"/>
      <stop offset="100%" stop-color="#065F46"/>
    </linearGradient>
    <!-- Crown inner highlight -->
    <linearGradient id="c-crown-hi" x1="40" y1="22" x2="40" y2="48" gradientUnits="userSpaceOnUse">
      <stop offset="0%" stop-color="#2DD4BF"/>
      <stop offset="100%" stop-color="#0F766E"/>
    </linearGradient>
    <!-- Outer aura — large soft glow -->
    <radialGradient id="c-aura-outer" cx="40" cy="36" r="38" gradientUnits="userSpaceOnUse">
      <stop offset="0%" stop-color="#99F6E4" stop-opacity="0.45"/>
      <stop offset="40%" stop-color="#5EEAD4" stop-opacity="0.15"/>
      <stop offset="100%" stop-color="#0D9488" stop-opacity="0"/>
    </radialGradient>
    <!-- Inner aura — concentrated core glow -->
    <radialGradient id="c-aura-inner" cx="40" cy="32" r="18" gradientUnits="userSpaceOnUse">
      <stop offset="0%" stop-color="#CCFBF1" stop-opacity="0.6"/>
      <stop offset="50%" stop-color="#5EEAD4" stop-opacity="0.2"/>
      <stop offset="100%" stop-color="#14B8A6" stop-opacity="0"/>
    </radialGradient>
    <!-- Center jewel gradient -->
    <radialGradient id="c-jewel" cx="40" cy="20" r="5" gradientUnits="userSpaceOnUse">
      <stop offset="0%" stop-color="#F0FDFA"/>
      <stop offset="40%" stop-color="#99F6E4"/>
      <stop offset="100%" stop-color="#2DD4BF"/>
    </radialGradient>
    <!-- Side jewel gradient -->
    <radialGradient id="c-side-jewel" cx="0.5" cy="0.4" r="0.6">
      <stop offset="0%" stop-color="#F0FDFA"/>
      <stop offset="50%" stop-color="#5EEAD4"/>
      <stop offset="100%" stop-color="#0D9488"/>
    </radialGradient>
    <!-- Band gold accent -->
    <linearGradient id="c-band" x1="22" y1="48" x2="58" y2="48" gradientUnits="userSpaceOnUse">
      <stop offset="0%" stop-color="#065F46"/>
      <stop offset="50%" stop-color="#14B8A6"/>
      <stop offset="100%" stop-color="#065F46"/>
    </linearGradient>
    <!-- Glow filter for multi-layer bloom -->
    <filter id="c-glow" x="-50%" y="-50%" width="200%" height="200%">
      <feGaussianBlur in="SourceGraphic" stdDeviation="2.5" result="blur1"/>
      <feGaussianBlur in="SourceGraphic" stdDeviation="5" result="blur2"/>
      <feMerge>
        <feMergeNode in="blur2"/>
        <feMergeNode in="blur1"/>
        <feMergeNode in="SourceGraphic"/>
      </feMerge>
    </filter>
    <!-- Soft glow for jewels -->
    <filter id="c-jewel-glow" x="-80%" y="-80%" width="260%" height="260%">
      <feGaussianBlur in="SourceGraphic" stdDeviation="1.5"/>
    </filter>
  </defs>

  <!-- ═══ LAYER 0: Outer aura bloom ═══ -->
  <circle cx="40" cy="38" r="36" fill="url(#c-aura-outer)"/>

  <!-- ═══ LAYER 1: Outer hex shell ═══ -->
  <polygon points="40,4 68,20 68,56 40,72 12,56 12,20"
    fill="url(#c-body)" stroke="url(#c-edge)" stroke-width="2.5" stroke-linejoin="round"/>

  <!-- ═══ LAYER 2: Double-border inner frames ═══ -->
  <!-- Frame 1 — outer trace -->
  <polygon points="40,8 64,22 64,54 40,68 16,54 16,22"
    fill="none" stroke="#99F6E4" stroke-width="0.7" stroke-linejoin="round" opacity="0.35"/>
  <!-- Frame 2 — inner trace -->
  <polygon points="40,12 60,24 60,52 40,64 20,52 20,24"
    fill="none" stroke="#5EEAD4" stroke-width="0.5" stroke-linejoin="round" opacity="0.25"/>

  <!-- ═══ LAYER 3: Inner concentrated aura ═══ -->
  <circle cx="40" cy="34" r="18" fill="url(#c-aura-inner)"/>

  <!-- ═══ LAYER 4: Wing accents (left + right) ═══ -->
  <!-- Left wing -->
  <path d="M14 28L8 22L12 32L8 42L14 48" stroke="#5EEAD4" stroke-width="1.2" fill="none" stroke-linejoin="round" opacity="0.6"/>
  <path d="M16 30L11 25L14 33L11 41L16 46" stroke="#99F6E4" stroke-width="0.5" fill="none" stroke-linejoin="round" opacity="0.35"/>
  <!-- Right wing -->
  <path d="M66 28L72 22L68 32L72 42L66 48" stroke="#5EEAD4" stroke-width="1.2" fill="none" stroke-linejoin="round" opacity="0.6"/>
  <path d="M64 30L69 25L66 33L69 41L64 46" stroke="#99F6E4" stroke-width="0.5" fill="none" stroke-linejoin="round" opacity="0.35"/>

  <!-- ═══ LAYER 5: Crown — outer silhouette ═══ -->
  <path d="M22 48L24 26L31 36L40 20L49 36L56 26L58 48Z"
    fill="url(#c-crown)" stroke="#5EEAD4" stroke-width="1.5" stroke-linejoin="round"/>

  <!-- ═══ LAYER 6: Crown — inner highlight ═══ -->
  <path d="M25 48L27 30L33 38L40 25L47 38L53 30L55 48Z"
    fill="url(#c-crown-hi)" stroke="#99F6E4" stroke-width="0.6" stroke-linejoin="round"/>

  <!-- ═══ LAYER 7: Crown — facet detail lines ═══ -->
  <line x1="40" y1="25" x2="40" y2="48" stroke="#CCFBF1" stroke-width="0.4" opacity="0.3"/>
  <line x1="33" y1="38" x2="33" y2="48" stroke="#CCFBF1" stroke-width="0.3" opacity="0.2"/>
  <line x1="47" y1="38" x2="47" y2="48" stroke="#CCFBF1" stroke-width="0.3" opacity="0.2"/>

  <!-- ═══ LAYER 8: Crown jewels — with glow backing ═══ -->
  <!-- Center jewel glow -->
  <circle cx="40" cy="19" r="5" fill="#5EEAD4" opacity="0.3" filter="url(#c-jewel-glow)"/>
  <!-- Center jewel -->
  <circle cx="40" cy="19" r="4" fill="url(#c-jewel)" stroke="#CCFBF1" stroke-width="1"/>
  <circle cx="40" cy="19" r="2" fill="#CCFBF1" opacity="0.7"/>
  <circle cx="39" cy="18" r="0.8" fill="#FFFFFF" opacity="0.9"/>

  <!-- Left jewel glow -->
  <circle cx="26" cy="26" r="3.5" fill="#5EEAD4" opacity="0.25" filter="url(#c-jewel-glow)"/>
  <!-- Left jewel -->
  <circle cx="26" cy="26" r="3" fill="url(#c-side-jewel)" stroke="#99F6E4" stroke-width="0.8"/>
  <circle cx="26" cy="26" r="1.3" fill="#CCFBF1" opacity="0.7"/>
  <circle cx="25.3" cy="25.3" r="0.5" fill="#FFFFFF" opacity="0.9"/>

  <!-- Right jewel glow -->
  <circle cx="54" cy="26" r="3.5" fill="#5EEAD4" opacity="0.25" filter="url(#c-jewel-glow)"/>
  <!-- Right jewel -->
  <circle cx="54" cy="26" r="3" fill="url(#c-side-jewel)" stroke="#99F6E4" stroke-width="0.8"/>
  <circle cx="54" cy="26" r="1.3" fill="#CCFBF1" opacity="0.7"/>
  <circle cx="53.3" cy="25.3" r="0.5" fill="#FFFFFF" opacity="0.9"/>

  <!-- ═══ LAYER 9: Ornate base band ═══ -->
  <rect x="22" y="48" width="36" height="5.5" rx="0.6" fill="url(#c-band)" stroke="#5EEAD4" stroke-width="1"/>
  <!-- Band inner border -->
  <rect x="24" y="49.2" width="32" height="3" rx="0.3" fill="none" stroke="#99F6E4" stroke-width="0.4" opacity="0.4"/>
  <!-- Band segment lines -->
  <line x1="30" y1="48" x2="30" y2="53.5" stroke="#5EEAD4" stroke-width="0.5" opacity="0.4"/>
  <line x1="36" y1="48" x2="36" y2="53.5" stroke="#5EEAD4" stroke-width="0.5" opacity="0.4"/>
  <line x1="40" y1="48" x2="40" y2="53.5" stroke="#99F6E4" stroke-width="0.6" opacity="0.5"/>
  <line x1="44" y1="48" x2="44" y2="53.5" stroke="#5EEAD4" stroke-width="0.5" opacity="0.4"/>
  <line x1="50" y1="48" x2="50" y2="53.5" stroke="#5EEAD4" stroke-width="0.5" opacity="0.4"/>
  <!-- Band embedded gems -->
  <circle cx="33" cy="50.7" r="1" fill="#0D9488" stroke="#5EEAD4" stroke-width="0.5"/>
  <circle cx="33" cy="50.7" r="0.4" fill="#99F6E4" opacity="0.8"/>
  <circle cx="40" cy="50.7" r="1.2" fill="#0D9488" stroke="#99F6E4" stroke-width="0.6"/>
  <circle cx="40" cy="50.7" r="0.5" fill="#CCFBF1" opacity="0.9"/>
  <circle cx="47" cy="50.7" r="1" fill="#0D9488" stroke="#5EEAD4" stroke-width="0.5"/>
  <circle cx="47" cy="50.7" r="0.4" fill="#99F6E4" opacity="0.8"/>

  <!-- ═══ LAYER 10: Vertex accents on outer hex ═══ -->
  <circle cx="40" cy="4" r="1.5" fill="#99F6E4" opacity="0.5"/>
  <circle cx="68" cy="20" r="1.2" fill="#5EEAD4" opacity="0.35"/>
  <circle cx="68" cy="56" r="1.2" fill="#5EEAD4" opacity="0.35"/>
  <circle cx="40" cy="72" r="1.5" fill="#99F6E4" opacity="0.4"/>
  <circle cx="12" cy="56" r="1.2" fill="#5EEAD4" opacity="0.35"/>
  <circle cx="12" cy="20" r="1.2" fill="#5EEAD4" opacity="0.35"/>

  <!-- ═══ LAYER 11: Sparkle particles ═══ -->
  <circle cx="20" cy="14" r="0.6" fill="#CCFBF1" opacity="0.7"/>
  <circle cx="60" cy="14" r="0.6" fill="#CCFBF1" opacity="0.7"/>
  <circle cx="18" cy="58" r="0.5" fill="#99F6E4" opacity="0.5"/>
  <circle cx="62" cy="58" r="0.5" fill="#99F6E4" opacity="0.5"/>
  <circle cx="32" cy="8" r="0.4" fill="#FFFFFF" opacity="0.6"/>
  <circle cx="48" cy="8" r="0.4" fill="#FFFFFF" opacity="0.6"/>
  <circle cx="8" cy="38" r="0.5" fill="#99F6E4" opacity="0.4"/>
  <circle cx="72" cy="38" r="0.5" fill="#99F6E4" opacity="0.4"/>
</svg>
