<svg viewBox="0 0 64 64" fill="none" xmlns="http://www.w3.org/2000/svg">
  <defs>
    <linearGradient id="dia-body" x1="32" y1="4" x2="32" y2="60" gradientUnits="userSpaceOnUse">
      <stop offset="0%" stop-color="#A5B4FC"/>
      <stop offset="50%" stop-color="#4F46E5"/>
      <stop offset="100%" stop-color="#3730A3"/>
    </linearGradient>
    <linearGradient id="dia-edge" x1="32" y1="4" x2="32" y2="60" gradientUnits="userSpaceOnUse">
      <stop offset="0%" stop-color="#C7D2FE"/>
      <stop offset="100%" stop-color="#6366F1"/>
    </linearGradient>
    <radialGradient id="dia-core" cx="32" cy="32" r="12" gradientUnits="userSpaceOnUse">
      <stop offset="0%" stop-color="#E0E7FF" stop-opacity="0.9"/>
      <stop offset="100%" stop-color="#4F46E5" stop-opacity="0.1"/>
    </radialGradient>
  </defs>
  <polygon points="32,4 56,18 56,46 32,60 8,46 8,18" fill="url(#dia-body)" stroke="url(#dia-edge)" stroke-width="2" stroke-linejoin="round"/>
  <polygon points="32,10 51,20 51,44 32,54 13,44 13,20" fill="none" stroke="#C7D2FE" stroke-width="0.6" stroke-linejoin="round" opacity="0.3"/>
  <!-- Outer diamond -->
  <path d="M32 14L46 32L32 50L18 32Z" fill="#3730A3" stroke="#A5B4FC" stroke-width="1" stroke-linejoin="round"/>
  <!-- Inner diamond -->
  <path d="M32 20L40 32L32 44L24 32Z" fill="url(#dia-core)" stroke="#C7D2FE" stroke-width="0.8" stroke-linejoin="round"/>
  <!-- Brilliance lines -->
  <line x1="32" y1="14" x2="32" y2="50" stroke="#C7D2FE" stroke-width="0.6" opacity="0.4"/>
  <line x1="18" y1="32" x2="46" y2="32" stroke="#C7D2FE" stroke-width="0.6" opacity="0.4"/>
  <line x1="25" y1="20" x2="39" y2="44" stroke="#C7D2FE" stroke-width="0.4" opacity="0.2"/>
  <line x1="39" y1="20" x2="25" y2="44" stroke="#C7D2FE" stroke-width="0.4" opacity="0.2"/>
  <!-- Center gem -->
  <circle cx="32" cy="32" r="4" fill="#4F46E5" stroke="#C7D2FE" stroke-width="1"/>
  <circle cx="32" cy="32" r="1.8" fill="#A5B4FC"/>
  <circle cx="31" cy="31" r="0.7" fill="#E0E7FF" opacity="0.9"/>
</svg>
