<svg viewBox="0 0 64 64" fill="none" xmlns="http://www.w3.org/2000/svg">
  <defs>
    <linearGradient id="gm-body" x1="32" y1="4" x2="32" y2="60" gradientUnits="userSpaceOnUse">
      <stop offset="0%" stop-color="#FDBA74"/>
      <stop offset="50%" stop-color="#FF6B35"/>
      <stop offset="100%" stop-color="#C2410C"/>
    </linearGradient>
    <linearGradient id="gm-edge" x1="32" y1="4" x2="32" y2="60" gradientUnits="userSpaceOnUse">
      <stop offset="0%" stop-color="#FED7AA"/>
      <stop offset="100%" stop-color="#FF6B35"/>
    </linearGradient>
    <radialGradient id="gm-fire" cx="32" cy="30" r="16" gradientUnits="userSpaceOnUse">
      <stop offset="0%" stop-color="#FDE68A" stop-opacity="0.7"/>
      <stop offset="50%" stop-color="#FF6B35" stop-opacity="0.25"/>
      <stop offset="100%" stop-color="#C2410C" stop-opacity="0"/>
    </radialGradient>
  </defs>
  <polygon points="32,4 56,18 56,46 32,60 8,46 8,18" fill="url(#gm-body)" stroke="url(#gm-edge)" stroke-width="2" stroke-linejoin="round"/>
  <polygon points="32,10 51,20 51,44 32,54 13,44 13,20" fill="none" stroke="#FED7AA" stroke-width="0.6" stroke-linejoin="round" opacity="0.3"/>
  <!-- Fire aura -->
  <circle cx="32" cy="30" r="16" fill="url(#gm-fire)"/>
  <!-- Outer star -->
  <path d="M32 14L36 24L46 26L38 34L40 44L32 39L24 44L26 34L18 26L28 24Z" fill="#C2410C" stroke="#FDBA74" stroke-width="1" stroke-linejoin="round"/>
  <!-- Inner star -->
  <path d="M32 20L34.5 27L42 28.5L36.5 34L38 41L32 37.5L26 41L27.5 34L22 28.5L29.5 27Z" fill="#FF6B35" stroke="#FED7AA" stroke-width="0.6" stroke-linejoin="round"/>
  <!-- Core blaze -->
  <circle cx="32" cy="32" r="4" fill="#C2410C" stroke="#FDE68A" stroke-width="1"/>
  <circle cx="32" cy="32" r="2" fill="#FF6B35"/>
  <circle cx="32" cy="32" r="0.8" fill="#FDE68A"/>
  <!-- Star tips gleam -->
  <circle cx="32" cy="14" r="1" fill="#FDE68A" opacity="0.7"/>
  <circle cx="46" cy="26" r="0.8" fill="#FDE68A" opacity="0.5"/>
  <circle cx="18" cy="26" r="0.8" fill="#FDE68A" opacity="0.5"/>
</svg>
