<svg viewBox="0 0 64 64" fill="none" xmlns="http://www.w3.org/2000/svg">
  <defs>
    <linearGradient id="plat-body" x1="32" y1="4" x2="32" y2="60" gradientUnits="userSpaceOnUse">
      <stop offset="0%" stop-color="#7DD3FC"/>
      <stop offset="50%" stop-color="#0EA5E9"/>
      <stop offset="100%" stop-color="#0369A1"/>
    </linearGradient>
    <linearGradient id="plat-edge" x1="32" y1="4" x2="32" y2="60" gradientUnits="userSpaceOnUse">
      <stop offset="0%" stop-color="#BAE6FD"/>
      <stop offset="100%" stop-color="#0EA5E9"/>
    </linearGradient>
    <radialGradient id="plat-core" cx="32" cy="32" r="12" gradientUnits="userSpaceOnUse">
      <stop offset="0%" stop-color="#BAE6FD" stop-opacity="0.8"/>
      <stop offset="100%" stop-color="#0EA5E9" stop-opacity="0.1"/>
    </radialGradient>
  </defs>
  <polygon points="32,4 56,18 56,46 32,60 8,46 8,18" fill="url(#plat-body)" stroke="url(#plat-edge)" stroke-width="2" stroke-linejoin="round"/>
  <polygon points="32,12 49,21 49,43 32,52 15,43 15,21" fill="none" stroke="#BAE6FD" stroke-width="0.8" stroke-linejoin="round" opacity="0.4"/>
  <!-- Diamond cross -->
  <path d="M32 16L44 32L32 48L20 32Z" fill="#0369A1" stroke="#7DD3FC" stroke-width="1" stroke-linejoin="round"/>
  <!-- Inner diamond -->
  <path d="M32 22L39 32L32 42L25 32Z" fill="#0284C7" stroke="#BAE6FD" stroke-width="0.6" stroke-linejoin="round" opacity="0.6"/>
  <!-- Core glow -->
  <circle cx="32" cy="32" r="8" fill="url(#plat-core)"/>
  <!-- Center gem -->
  <circle cx="32" cy="32" r="4" fill="#0EA5E9" stroke="#BAE6FD" stroke-width="1"/>
  <circle cx="32" cy="32" r="1.8" fill="#7DD3FC"/>
  <circle cx="31" cy="31" r="0.8" fill="#BAE6FD" opacity="0.8"/>
  <!-- Cardinal points -->
  <circle cx="32" cy="16" r="1.2" fill="#BAE6FD" opacity="0.5"/>
  <circle cx="32" cy="48" r="1.2" fill="#BAE6FD" opacity="0.5"/>
  <circle cx="20" cy="32" r="1.2" fill="#BAE6FD" opacity="0.4"/>
  <circle cx="44" cy="32" r="1.2" fill="#BAE6FD" opacity="0.4"/>
</svg>
